#!OML:ASF H:\ManfredETheater\Project 1\Capture day 1\Session 1\subject.ASF
:FULLY-SPECIFIED
:DEGREES
244
root 0.652171 17.6131 -16.6048 -169.195 -2.06842 179.118
lowerback 2.71828 -0.204305 -0.468047
upperback -3.83988 -0.334692 2.06612
thorax -5.48708 -0.157988 2.43768
lowerneck -16.6224 -1.91889 -2.81274
upperneck 14.1622 -2.04413 0.319806
head 7.10169 -1.12941 0.336928
rclavicle 5.86415e-015 -4.77083e-015
rhumerus -36.0342 -4.5977 -83.4618
rradius 36.3689
rwrist -0.478683
rhand -20.8784 -9.24084
rfingers 7.12502
rthumb 5.49171 -39.1497
lclavicle 5.86415e-015 -4.77083e-015
lhumerus -40.1403 7.7122 86.8256
lradius 35.0841
lwrist -9.40322
lhand -10.239 7.70548
lfingers 7.12502
lthumb 15.7535 37.0844
rfemur -16.3832 -0.748497 22.4176
rtibia 34.3057
rfoot -25.3689 -15.1511
rtoes -27.5935
lfemur -21.0208 -6.91633 -21.5159
ltibia 41.2059
lfoot -27.8966 1.60682
ltoes 13.472
245
root 0.639485 17.6047 -16.6406 -169.07 -1.9818 179.109
lowerback 2.71715 -0.167879 -0.427955
upperback -3.85785 -0.285272 2.05699
thorax -5.5077 -0.135638 2.40226
lowerneck -16.5851 -1.92216 -2.82772
upperneck 14.1118 -2.04434 0.312825
head 7.079 -1.13049 0.33762
rclavicle 6.36111e-015 7.15625e-015
rhumerus -36.1129 -4.26794 -83.7146
rradius 36.57
rwrist -0.565983
rhand -20.9161 -9.17849
rfingers 7.12502
rthumb 5.45538 -39.0883
lclavicle 6.36111e-015 7.15625e-015
lhumerus -40.1957 7.72557 86.842
lradius 35.0659
lwrist -9.37634
lhand -10.2622 7.61495
lfingers 7.12502
lthumb 15.7312 36.9956
rfemur -16.4148 -0.829205 22.3585
rtibia 34.3755
rfoot -25.6546 -15.3979
rtoes -28.4553
lfemur -21.0348 -6.9201 -21.5883
ltibia 41.2602
lfoot -28.0734 1.72749
ltoes 13.4931
246
root 0.626429 17.5963 -16.6786 -168.941 -1.89019 179.103
lowerback 2.71261 -0.128777 -0.381347
upperback -3.87975 -0.232241 2.04865
thorax -5.53059 -0.1119 2.36374
lowerneck -16.5442 -1.92431 -2.84214
upperneck 14.0668 -2.0432 0.303677
head 7.05745 -1.13123 0.337662
rclavicle 4.57205e-015 2.38542e-014
rhumerus -36.1969 -3.93174 -83.9696
rradius 36.7827
rwrist -0.650071
rhand -20.9355 -9.11476
rfingers 7.12502
rthumb 5.43666 -39.025
lclavicle 4.57205e-015 2.38542e-014
lhumerus -40.2558 7.74034 86.8609
lradius 35.0431
lwrist -9.35817
lhand -10.2866 7.51958
lfingers 7.12502
lthumb 15.7076 36.9021
rfemur -16.44 -0.902256 22.3005
rtibia 34.4395
rfoot -25.9012 -15.6113
rtoes -29.2252
lfemur -21.0396 -6.92221 -21.6587
ltibia 41.3068
lfoot -28.2542 1.8402
ltoes 13.5324
247
root 0.613064 17.5878 -16.7187 -168.807 -1.79627 179.099
lowerback 2.70269 -0.0886183 -0.331939
upperback -3.90452 -0.177937 2.04027
thorax -5.55336 -0.0877844 2.32349
lowerneck -16.5095 -1.92445 -2.84831
upperneck 14.0301 -2.04027 0.288728
head 7.03947 -1.13128 0.33458
rclavicle 5.96354e-016 3.18055e-015
rhumerus -36.2787 -3.58937 -84.2291
rradius 37.0068
rwrist -0.729843
rhand -20.9279 -9.07183
rfingers 7.12502
rthumb 5.44395 -38.9819
lclavicle 5.96354e-016 3.18055e-015
lhumerus -40.3139 7.75628 86.8812
lradius 35.0152
lwrist -9.35156
lhand -10.308 7.4278
lfingers 7.12502
lthumb 15.6871 36.8119
rfemur -16.4624 -0.968448 22.2415
rtibia 34.4975
rfoot -26.1389 -15.7844
rtoes -29.8605
lfemur -21.0392 -6.92161 -21.7292
ltibia 41.3463
lfoot -28.4415 1.94548
ltoes 13.5557
248
root 0.599337 17.5793 -16.7612 -168.669 -1.69913 179.094
lowerback 2.68595 -0.0460525 -0.27908
upperback -3.93062 -0.120505 2.03091
thorax -5.57366 -0.0624125 2.28
lowerneck -16.4839 -1.927 -2.85892
upperneck 14.0048 -2.04036 0.27941
head 7.02691 -1.13261 0.33359
rclavicle -2.98177e-016 -6.36111e-015
rhumerus -36.3563 -3.24287 -84.4917
rradius 37.2396
rwrist -0.816868
rhand -20.9057 -9.03757
rfingers 7.12502
rthumb 5.46543 -38.9471
lclavicle -2.98177e-016 -6.36111e-015
lhumerus -40.3762 7.76528 86.9065
lradius 34.9916
lwrist -9.35402
lhand -10.3246 7.33827
lfingers 7.12502
lthumb 15.671 36.7236
rfemur -16.4778 -1.0278 22.1797
rtibia 34.5494
rfoot -26.372 -15.9291
rtoes -30.4003
lfemur -21.0295 -6.91737 -21.8022
ltibia 41.3788
lfoot -28.6377 2.04859
ltoes 13.5497
249
root 0.585289 17.5705 -16.8058 -168.527 -1.59926 179.092
lowerback 2.66457 -0.0013275 -0.221326
upperback -3.96057 -0.0602853 2.0223
thorax -5.59534 -0.0360238 2.23436
lowerneck -16.4586 -1.92839 -2.87432
upperneck 13.9858 -2.03971 0.280912
head 7.01661 -1.13292 0.336944
rclavicle 5.96354e-016 -1.98785e-014
rhumerus -36.4363 -2.89088 -84.7572
rradius 37.4863
rwrist -0.908256
rhand -20.871 -9.0047
rfingers 7.12502
rthumb 5.49891 -38.9134
lclavicle 5.96354e-016 -1.98785e-014
lhumerus -40.4457 7.76748 86.9369
lradius 34.9753
lwrist -9.36327
lhand -10.3328 7.25668
lfingers 7.12502
lthumb 15.6632 36.6427
rfemur -16.4881 -1.08212 22.12
rtibia 34.5956
rfoot -26.5965 -16.0626
rtoes -30.8958
lfemur -21.0138 -6.90949 -21.8735
ltibia 41.4059
lfoot -28.8427 2.1594
ltoes 13.5024
250
root 0.571061 17.5615 -16.8526 -168.381 -1.50064 179.092
lowerback 2.64167 0.0440849 -0.159999
upperback -3.99307 0.000816206 2.01373
thorax -5.61872 -0.00946466 2.18673
lowerneck -16.4325 -1.93178 -2.8909
upperneck 13.967 -2.04209 0.285656
head 7.00633 -1.13446 0.341222
rclavicle -5.06901e-015 4.45278e-014
rhumerus -36.5145 -2.53457 -85.0281
rradius 37.7455
rwrist -1.00472
rhand -20.8213 -8.97935
rfingers 7.12502
rthumb 5.54688 -38.8867
lclavicle -5.06901e-015 4.45278e-014
lhumerus -40.5171 7.76083 86.9715
lradius 34.9647
lwrist -9.38026
lhand -10.3244 7.17977
lfingers 7.12502
lthumb 15.6712 36.5651
rfemur -16.4911 -1.1282 22.0628
rtibia 34.636
rfoot -26.8136 -16.1955
rtoes -31.3572
lfemur -20.9916 -6.8999 -21.9429
ltibia 41.4288
lfoot -29.0567 2.28072
ltoes 13.4126
251
root 0.556624 17.5523 -16.9015 -168.23 -1.40228 179.095
lowerback 2.61671 0.0898267 -0.0945657
upperback -4.0265 0.0624078 2.00567
thorax -5.64177 0.0170619 2.13729
lowerneck -16.4192 -1.9361 -2.90964
upperneck 13.9565 -2.04571 0.296011
head 7.00102 -1.1362 0.347396
rclavicle 1.09332e-015 -3.73715e-014
rhumerus -36.5848 -2.17489 -85.302
rradius 38.0189
rwrist -1.083
rhand -20.7484 -8.96948
rfingers 7.12502
rthumb 5.61726 -38.875
lclavicle 1.09332e-015 -3.73715e-014
lhumerus -40.5939 7.74183 87.0131
lradius 34.9728
lwrist -9.3966
lhand -10.3082 7.10575
lfingers 7.12502
lthumb 15.6868 36.4899
rfemur -16.4889 -1.16613 22.0083
rtibia 34.6713
rfoot -27.0222 -16.329
rtoes -31.7881
lfemur -20.9652 -6.88679 -22.0102
ltibia 41.449
lfoot -29.2812 2.41839
ltoes 13.2661
